<?xml version="1.0" encoding="iso-8859-1"?>
<!-- Generator: Adobe Illustrator 16.0.0, SVG Export Plug-In . SVG Version: 6.00 Build 0)  -->
<!DOCTYPE svg PUBLIC "-//W3C//DTD SVG 1.1//EN" "http://www.w3.org/Graphics/SVG/1.1/DTD/svg11.dtd">
<svg version="1.1" id="Capa_1" xmlns="http://www.w3.org/2000/svg" xmlns:xlink="http://www.w3.org/1999/xlink" x="0px" y="0px"
	 width="541.917px" height="541.917px" viewBox="0 0 541.917 541.917" style="enable-background:new 0 0 541.917 541.917;"
	 xml:space="preserve">
<g>
	<path class="jp-icon2" fill="#424242" d="M8.784,74.091h47.451v393.74H8.784c-4.607,0-8.334,3.735-8.334,8.334c0,4.604,3.727,8.34,8.334,8.34h49.068v49.077
		c0,4.599,3.736,8.334,8.334,8.334c4.607,0,8.334-3.735,8.334-8.334v-49.089h392.868v49.083c0,4.599,3.729,8.334,8.334,8.334
		c4.61,0,8.334-3.735,8.334-8.334v-49.083h49.077c4.604,0,8.334-3.724,8.334-8.334c0-4.599-3.729-8.334-8.334-8.334h-49.077V74.091
		h49.077c4.604,0,8.334-3.735,8.334-8.334c0-4.607-3.729-8.337-8.334-8.337h-49.077V8.334c0-4.599-3.724-8.334-8.334-8.334
		c-4.604,0-8.334,3.736-8.334,8.334v48.338H74.52V8.334C74.52,3.736,70.793,0,66.186,0c-4.599,0-8.334,3.736-8.334,8.334v49.08
		H8.784c-4.607,0-8.334,3.73-8.334,8.337C0.449,70.356,4.176,74.091,8.784,74.091z M340.531,73.716h126.857V201.51H340.531V73.716z
		 M340.531,207.06h126.857v127.418H340.531V207.06z M340.531,340.413h126.857v127.419H340.531V340.413z M207.175,73.716h127.8
		V201.51h-127.8V73.716z M207.175,207.06h127.8v127.418h-127.8V207.06z M207.175,340.413h127.8v127.419h-127.8V340.413z
		 M73.832,73.716h127.788V201.51H73.832V73.716z M73.832,207.06h127.788v127.418H73.832V207.06z M73.832,340.413h127.788v127.419
		H73.832V340.413z M83.889,218.5h104.904v104.913H83.889V218.5z"/>
</g>
<g>
</g>
<g>
</g>
<g>
</g>
<g>
</g>
<g>
</g>
<g>
</g>
<g>
</g>
<g>
</g>
<g>
</g>
<g>
</g>
<g>
</g>
<g>
</g>
<g>
</g>
<g>
</g>
<g>
</g>
</svg>
